<svg width="46" height="38" viewBox="0 0 46 38" fill="none" xmlns="http://www.w3.org/2000/svg">
<path d="M3.26987 37.0864H42.13C43.8013 37.0864 45.1599 35.6538 45.1599 33.894V32.0439C45.1599 31.3671 44.6316 30.8144 43.9954 30.8144H41.7418C42.281 30.1375 42.6044 29.2689 42.6044 28.3439V19.6464C42.6044 19.2629 42.3133 18.9583 41.9467 18.9583C41.5801 18.9583 41.289 19.2629 41.289 19.6464V28.3552C41.289 29.5622 40.4479 30.6113 39.3158 30.8256C37.8062 30.8256 7.0761 30.8256 6.09489 30.8256C4.96273 30.6113 4.12169 29.5622 4.12169 28.3552V4.36108C4.12169 2.97356 5.19994 1.84548 6.52619 1.84548H38.8953C40.2215 1.84548 41.2998 2.97356 41.2998 4.36108V16.4314C41.2998 16.815 41.5909 17.1196 41.9575 17.1196C42.3241 17.1196 42.6152 16.815 42.6152 16.4314V4.36108C42.6152 2.21775 40.9439 0.469238 38.8953 0.469238H6.51541C4.46673 0.469238 2.79544 2.21775 2.79544 4.36108V28.3552C2.79544 29.2802 3.11892 30.1488 3.65804 30.8256H1.4045C0.75755 30.8256 0.23999 31.3784 0.23999 32.0552V33.9053C0.23999 35.6538 1.59859 37.0864 3.26987 37.0864ZM16.996 32.1906H28.3931V32.7434C28.3931 32.969 28.2098 33.172 27.9942 33.172H17.3842C17.1685 33.172 16.9852 32.9802 16.9852 32.7434V32.1906H16.996ZM1.55546 32.1906H15.6805V32.7434C15.6805 33.7361 16.4461 34.5483 17.395 34.5483H28.0049C28.943 34.5483 29.7194 33.7361 29.7194 32.7434V32.1906H43.8444V33.894C43.8444 34.898 43.0789 35.7102 42.13 35.7102H3.26987C2.3318 35.7102 1.55546 34.898 1.55546 33.894V32.1906Z" fill="#F1592A"/>
<path d="M21.158 4.69949C21.5246 4.69949 21.8158 4.39491 21.8158 4.01137C21.8158 3.62782 21.5246 3.32324 21.158 3.32324C20.5326 3.32324 7.3025 3.32324 6.75259 3.32324C6.08408 3.32324 5.54495 3.88728 5.54495 4.58668V28.0845C5.54495 28.7839 6.08408 29.3479 6.75259 29.3479H38.6365C39.305 29.3479 39.8441 28.7839 39.8441 28.0845C39.8441 26.1555 39.8441 5.4553 39.8441 4.58668C39.8441 3.88728 39.305 3.32324 38.6365 3.32324H24.231C23.8644 3.32324 23.5733 3.62782 23.5733 4.01137C23.5733 4.39491 23.8644 4.69949 24.231 4.69949H38.5286V6.73002C38.1405 6.73002 10.8607 6.73002 10.4294 6.73002V4.69949H21.158ZM34.1509 27.9717H27.7246V27.1482C27.7246 26.2006 28.4686 25.4222 29.3743 25.4222H32.5012C33.4069 25.4222 34.1509 26.2006 34.1509 27.1482V27.9717ZM29.6331 22.6697C29.6331 21.9139 30.2153 21.3047 30.9377 21.3047C32.0915 21.3047 32.6845 22.7825 31.865 23.6398C31.3583 24.17 30.528 24.17 30.0212 23.6398C29.7732 23.3804 29.6331 23.042 29.6331 22.6697ZM23.3469 8.10627H38.5286V17.3565H35.4664V16.533C35.4664 15.0665 34.4852 13.8256 33.1697 13.5097C33.7951 12.4494 33.6765 11.0393 32.7923 10.1255C32.2963 9.60661 31.6386 9.32459 30.9377 9.32459C29.4929 9.32459 28.3176 10.5542 28.3176 12.0658C28.3176 12.5847 28.4578 13.0811 28.7166 13.5097C27.4011 13.8256 26.4199 15.0552 26.4199 16.533V17.3565H23.3576V8.10627H23.3469ZM32.5012 14.7958C33.4069 14.7958 34.1509 15.5741 34.1509 16.5217V17.3452H27.7246V16.5217C27.7246 15.5741 28.4686 14.7958 29.3743 14.7958H32.5012ZM29.6331 12.0545C29.6331 11.2987 30.2153 10.6896 30.9377 10.6896C32.0915 10.6896 32.6845 12.1673 31.865 13.0247C31.3583 13.5549 30.528 13.5549 30.0212 13.0247C29.7732 12.7652 29.6331 12.4155 29.6331 12.0545ZM23.3469 18.7214H38.5286V27.9717H35.4664V27.1482C35.4664 25.6817 34.4852 24.4408 33.1697 24.1249C33.7951 23.0645 33.6765 21.6544 32.7923 20.7407C31.1426 19.0147 28.3176 20.2556 28.3176 22.681C28.3176 23.1999 28.4578 23.6963 28.7058 24.1249C27.3903 24.4408 26.4091 25.6704 26.4091 27.1482V27.9717H23.3469V18.7214ZM6.86042 4.69949H9.11396V6.73002H6.86042V4.69949ZM17.6645 27.9717H11.2381V27.1482C11.2381 26.2006 11.9821 25.4222 12.8878 25.4222H16.0148C16.9205 25.4222 17.6645 26.2006 17.6645 27.1482V27.9717ZM14.4513 21.3047C15.605 21.3047 16.1981 22.7825 15.3786 23.6398C14.8718 24.17 14.0416 24.17 13.5348 23.6398C12.7045 22.7825 13.2976 21.3047 14.4513 21.3047ZM22.0314 27.9717H18.9692V27.1482C18.9692 25.6817 17.988 24.4408 16.6725 24.1249C17.2979 23.0645 17.1793 21.6544 16.2951 20.7407C14.6454 19.0147 11.8204 20.2556 11.8204 22.681C11.8204 23.1999 11.9605 23.6963 12.2193 24.1249C10.9039 24.4408 9.92265 25.6704 9.92265 27.1482V27.9717H6.86042V18.7214H22.0422V27.9717H22.0314ZM16.0148 14.7958C16.9205 14.7958 17.6645 15.5741 17.6645 16.5217V17.3452H11.2381V16.5217C11.2381 15.5741 11.9821 14.7958 12.8878 14.7958H16.0148ZM14.4513 10.6896C15.605 10.6896 16.1981 12.1673 15.3786 13.0247C14.8718 13.5549 14.0416 13.5549 13.5348 13.0247C12.7045 12.1673 13.2868 10.6896 14.4513 10.6896ZM22.0314 8.10627V17.3565H18.9692V16.533C18.9692 15.0665 17.988 13.8256 16.6725 13.5097C17.2979 12.4494 17.1793 11.0393 16.2951 10.1255C15.7991 9.60661 15.1414 9.32459 14.4405 9.32459C12.9957 9.32459 11.8204 10.5542 11.8204 12.0658C11.8204 12.5847 11.9605 13.0811 12.2085 13.5097C10.8931 13.8256 9.91187 15.0552 9.91187 16.533V17.3565H6.86042V8.10627H22.0314Z" fill="#F1592A"/>
</svg>
