<svg width="40" height="38" viewBox="0 0 40 38" fill="none" xmlns="http://www.w3.org/2000/svg">
<path d="M36.9441 25.8139V25.8024C36.9441 24.8936 36.4274 24.0769 35.6247 23.7318V20.7985C35.9876 20.7985 36.2844 20.4879 36.2844 20.1083V17.3475C36.2844 7.83425 28.8846 0.0925293 19.7915 0.0925293C10.6984 0.0925293 3.29858 7.83425 3.29858 17.3475V20.1083C3.29858 20.4879 3.59546 20.7985 3.9583 20.7985V23.7318C3.15565 24.0769 2.63887 24.8936 2.63887 25.8024V25.8139C1.04455 26.4581 0 28.0571 0 29.8401V31.0824C0 32.8654 1.04455 34.4644 2.63887 35.1086V35.1201C2.63887 36.3624 3.59546 37.3632 4.78295 37.3632H8.57632C8.93916 37.3632 9.23604 37.0526 9.23604 36.673V36.4084L10.4125 35.7873C11.3141 35.3271 11.8749 34.3609 11.8749 33.3141V27.5854C11.8749 26.5386 11.3141 25.5838 10.4125 25.1122L9.23604 24.514V24.2495C9.23604 23.8699 8.93916 23.5593 8.57632 23.5593H7.9166V20.7985C8.27945 20.7985 8.57632 20.4879 8.57632 20.1083V17.3475C8.57632 10.8826 13.6122 5.61411 19.7915 5.61411C25.9709 5.61411 31.0067 10.8826 31.0067 17.3475V20.1083C31.0067 20.4879 31.3036 20.7985 31.6664 20.7985V23.5593H31.0067C30.6438 23.5593 30.347 23.8699 30.347 24.2495V24.514L29.1705 25.1352C28.2689 25.5953 27.7081 26.5616 27.7081 27.6084V33.3371C27.7081 34.3839 28.2689 35.3386 29.1705 35.8103L30.347 36.4315V36.696C30.347 37.0756 30.6438 37.3862 31.0067 37.3862H34.8001C35.9876 37.3862 36.9441 36.3854 36.9441 35.1431V35.1316C38.5385 34.4874 39.583 32.8884 39.583 31.1054V29.8631C39.583 28.0571 38.5385 26.4581 36.9441 25.8139ZM2.63887 33.5671C1.81422 33.0265 1.31943 32.0947 1.31943 31.0824V29.8401C1.31943 28.8278 1.81422 27.8845 2.63887 27.3554V33.5671ZM9.23604 26.0555L9.82978 26.3661C10.2806 26.5961 10.5555 27.0793 10.5555 27.5969V33.3256C10.5555 33.8547 10.2696 34.3264 9.82978 34.5564L9.23604 34.867V26.0555ZM30.347 34.867L29.7532 34.5564C29.3024 34.3264 29.0275 33.8432 29.0275 33.3256V27.5969C29.0275 27.0678 29.3134 26.5961 29.7532 26.3661L30.347 26.0555V34.867ZM7.9166 35.9828H6.59717V29.771C6.59717 29.3914 6.3003 29.0808 5.93745 29.0808C5.57461 29.0808 5.27773 29.3914 5.27773 29.771V35.9828H4.78295C4.33214 35.9828 3.9583 35.5917 3.9583 35.1201V25.8024C3.9583 25.3308 4.33214 24.9397 4.78295 24.9397H5.27773V27.0103C5.27773 27.3899 5.57461 27.7004 5.93745 27.7004C6.3003 27.7004 6.59717 27.3899 6.59717 27.0103V24.9397H7.9166V35.9828ZM5.27773 23.5593V20.7985H6.59717V23.5593H5.27773ZM19.7915 4.23372C12.8755 4.23372 7.25688 10.1119 7.25688 17.3475V19.4181H4.61802V17.3475C4.61802 8.59347 11.4241 1.47293 19.7915 1.47293C28.1589 1.47293 34.965 8.59347 34.965 17.3475V19.4181H32.3261V17.3475C32.3261 10.1119 26.7075 4.23372 19.7915 4.23372ZM34.3053 20.7985V23.5593H32.9858V20.7985H34.3053ZM35.6247 26.3201V35.1201C35.6247 35.5917 35.2509 35.9828 34.8001 35.9828H34.3053V29.771C34.3053 29.3914 34.0084 29.0808 33.6456 29.0808C33.2827 29.0808 32.9858 29.3914 32.9858 29.771V35.9828H31.6664V24.9397H32.9858V27.0103C32.9858 27.3899 33.2827 27.7004 33.6456 27.7004C34.0084 27.7004 34.3053 27.3899 34.3053 27.0103V24.9397H34.8001C35.2509 24.9397 35.6247 25.3308 35.6247 25.8024V26.3201ZM38.2636 31.0824C38.2636 32.0947 37.7688 33.038 36.9441 33.5671V27.3554C37.7688 27.896 38.2636 28.8278 38.2636 29.8401V31.0824Z" fill="#F1592A"/>
<path d="M25.7292 29.0807H24.9046L23.0684 22.6733C22.9804 22.3742 22.7165 22.1672 22.4087 22.1787C22.1118 22.1902 21.8589 22.4087 21.7929 22.7193L19.6928 32.6007L17.7907 26.1243C17.7137 25.8482 17.4718 25.6527 17.1859 25.6412C16.911 25.6297 16.6472 25.8022 16.5482 26.0783L15.3827 29.0807H13.8544C13.4915 29.0807 13.1946 29.3913 13.1946 29.7709C13.1946 30.1505 13.4915 30.4611 13.8544 30.4611H15.8335C16.1084 30.4611 16.3503 30.2885 16.4492 30.0239L17.076 28.3905L19.1651 35.4995C19.253 35.7871 19.5059 35.9827 19.7918 35.9827C19.8028 35.9827 19.8138 35.9827 19.8138 35.9827C20.1107 35.9712 20.3636 35.7526 20.4295 35.442L22.5186 25.6067L23.7721 29.9779C23.86 30.2655 24.1129 30.4726 24.3988 30.4726H25.7182C26.0811 30.4726 26.378 30.162 26.378 29.7824C26.378 29.4028 26.0921 29.0807 25.7292 29.0807Z" fill="#F1592A"/>
<path d="M15.1733 16.657V14.5864C15.1733 14.2068 14.8764 13.8962 14.5136 13.8962C14.1508 13.8962 13.8539 14.2068 13.8539 14.5864V16.657C13.8539 17.0366 14.1508 17.3472 14.5136 17.3472C14.8764 17.3472 15.1733 17.0366 15.1733 16.657Z" fill="#F1592A"/>
<path d="M17.1526 19.418C17.5155 19.418 17.8124 19.1074 17.8124 18.7278V13.2061C17.8124 12.8265 17.5155 12.5159 17.1526 12.5159C16.7898 12.5159 16.4929 12.8265 16.4929 13.2061V18.7278C16.4929 19.1074 16.7898 19.418 17.1526 19.418Z" fill="#F1592A"/>
<path d="M20.4514 20.1082V11.8259C20.4514 11.4463 20.1545 11.1357 19.7917 11.1357C19.4288 11.1357 19.132 11.4463 19.132 11.8259V20.1082C19.132 20.4878 19.4288 20.7983 19.7917 20.7983C20.1545 20.7983 20.4514 20.4878 20.4514 20.1082Z" fill="#F1592A"/>
<path d="M22.4307 19.418C22.7936 19.418 23.0905 19.1074 23.0905 18.7278V13.2061C23.0905 12.8265 22.7936 12.5159 22.4307 12.5159C22.0679 12.5159 21.771 12.8265 21.771 13.2061V18.7278C21.771 19.1074 22.0679 19.418 22.4307 19.418Z" fill="#F1592A"/>
<path d="M25.7289 16.657V14.5864C25.7289 14.2068 25.432 13.8962 25.0692 13.8962C24.7064 13.8962 24.4095 14.2068 24.4095 14.5864V16.657C24.4095 17.0366 24.7064 17.3472 25.0692 17.3472C25.432 17.3472 25.7289 17.0366 25.7289 16.657Z" fill="#F1592A"/>
<path d="M28.3677 15.967V15.2769C28.3677 14.8973 28.0708 14.5867 27.7079 14.5867C27.3451 14.5867 27.0482 14.8973 27.0482 15.2769V15.967C27.0482 16.3466 27.3451 16.6572 27.7079 16.6572C28.0708 16.6572 28.3677 16.3466 28.3677 15.967Z" fill="#F1592A"/>
<path d="M11.8746 14.5867C11.5117 14.5867 11.2148 14.8973 11.2148 15.2769V15.967C11.2148 16.3466 11.5117 16.6572 11.8746 16.6572C12.2374 16.6572 12.5343 16.3466 12.5343 15.967V15.2769C12.5343 14.8973 12.2374 14.5867 11.8746 14.5867Z" fill="#F1592A"/>
</svg>
