<svg width="40" height="42" viewBox="0 0 40 42" fill="none" xmlns="http://www.w3.org/2000/svg">
<path d="M6.59467 20.6981C6.59467 19.1565 5.61577 17.8413 4.27623 17.3993C4.48231 16.3213 4.79144 15.2649 5.2036 14.2515C5.34786 13.8958 5.1933 13.4969 4.85326 13.346C4.51322 13.1951 4.13197 13.3568 3.98771 13.7125C3.52402 14.8552 3.18399 16.041 2.9573 17.2592C1.29832 17.4425 0 18.9193 0 20.6981C0 22.4768 1.29832 23.9537 2.9573 24.1262C3.18399 25.3443 3.52402 26.5409 3.98771 27.6728C4.09075 27.9316 4.33805 28.0933 4.59566 28.0933C4.67809 28.0933 4.77083 28.0717 4.85326 28.0394C5.1933 27.8884 5.34786 27.4896 5.2036 27.1338C4.79144 26.1205 4.48231 25.064 4.27623 23.986C5.61577 23.5548 6.59467 22.2396 6.59467 20.6981ZM3.55494 22.7463C3.50342 22.7463 3.4519 22.7463 3.40037 22.7571C3.39007 22.7571 3.36946 22.7679 3.35916 22.7679C3.33855 22.7679 3.31794 22.7679 3.29733 22.7679C2.20509 22.7679 1.31893 21.8408 1.31893 20.6981C1.31893 19.5554 2.20509 18.6283 3.29733 18.6283C3.31794 18.6283 3.33855 18.6283 3.35916 18.6283C3.36946 18.6283 3.39007 18.6391 3.40037 18.6391C3.43129 18.6498 3.4725 18.6498 3.50342 18.6498C3.51372 18.6498 3.53433 18.6498 3.54463 18.6498C4.51322 18.7792 5.27573 19.6524 5.27573 20.6981C5.27573 21.7437 4.52353 22.6169 3.55494 22.7463Z" fill="#F1592A"/>
<path d="M39.568 20.6981C39.568 18.9194 38.2697 17.4425 36.6107 17.27C36.384 16.0518 36.044 14.8552 35.5803 13.7233C35.436 13.3675 35.0548 13.2058 34.7147 13.3567C34.3747 13.5077 34.2201 13.9065 34.3644 14.2623C34.7766 15.2756 35.0857 16.3321 35.2918 17.4101C33.9522 17.8521 32.9733 19.1565 32.9733 20.7089C32.9733 22.2505 33.9522 23.5657 35.2918 24.0077C35.0857 25.0857 34.7766 26.1422 34.3644 27.1555C34.2201 27.5113 34.3747 27.9102 34.7147 28.0611C34.7972 28.0934 34.8899 28.115 34.9723 28.115C35.2299 28.115 35.4772 27.9533 35.5803 27.6946C36.044 26.5518 36.384 25.366 36.6107 24.1478C38.2697 23.9538 39.568 22.4769 39.568 20.6981ZM36.2707 22.768C36.2501 22.768 36.2295 22.768 36.2088 22.768C36.1985 22.768 36.1779 22.7572 36.1676 22.7572C36.1161 22.7464 36.0646 22.7464 36.0131 22.7464C35.0445 22.617 34.2923 21.7438 34.2923 20.6981C34.2923 19.6417 35.0445 18.7792 36.0234 18.6499C36.0337 18.6499 36.044 18.6499 36.0646 18.6499C36.0955 18.6499 36.1367 18.6499 36.1676 18.6391C36.1779 18.6391 36.1985 18.6283 36.2088 18.6283C36.2295 18.6283 36.2501 18.6283 36.2707 18.6283C37.3629 18.6283 38.2491 19.5554 38.2491 20.6981C38.2491 21.8408 37.3629 22.768 36.2707 22.768Z" fill="#F1592A"/>
<path d="M29.4389 7.57848C30.5106 8.45169 31.4792 9.45426 32.3138 10.5862C32.4478 10.7587 32.6435 10.8557 32.8393 10.8557C32.9836 10.8557 33.1175 10.8126 33.2412 10.7156C33.5297 10.4784 33.5812 10.0472 33.3648 9.74533C32.4684 8.52715 31.4173 7.43833 30.253 6.48966C29.9645 6.25249 29.5523 6.31717 29.3256 6.61902C29.0989 6.92087 29.1504 7.35209 29.4389 7.57848Z" fill="#F1592A"/>
<path d="M25.9458 35.9522C24.9772 36.3835 23.9674 36.7069 22.937 36.9225C22.5248 35.521 21.2677 34.4968 19.7839 34.4968C18.3104 34.4968 17.0533 35.521 16.6308 36.9225C15.6004 36.7069 14.5906 36.3835 13.622 35.9522C13.282 35.8013 12.9007 35.963 12.7565 36.3188C12.6122 36.6745 12.7668 37.0734 13.1068 37.2243C14.199 37.7095 15.3325 38.0652 16.4969 38.3024C16.672 40.0381 18.0734 41.3965 19.7736 41.3965C21.4738 41.3965 22.8855 40.0381 23.0503 38.3024C24.2147 38.0652 25.3585 37.6987 26.4404 37.2243C26.7804 37.0734 26.935 36.6745 26.7907 36.3188C26.6671 35.9738 26.2755 35.8013 25.9458 35.9522ZM19.7839 40.0166C18.6917 40.0166 17.8055 39.0894 17.8055 37.9467C17.8055 37.9251 17.8055 37.9035 17.8055 37.882C17.8055 37.8712 17.8158 37.8604 17.8158 37.8388C17.8261 37.7849 17.8261 37.731 17.8261 37.6771C17.9498 36.6638 18.7844 35.8768 19.7839 35.8768C20.7834 35.8768 21.618 36.6638 21.7417 37.6771C21.7417 37.731 21.7417 37.7849 21.752 37.8388C21.752 37.8496 21.7623 37.8604 21.7623 37.8712C21.7623 37.8928 21.7623 37.9143 21.7623 37.9467C21.7623 39.0894 20.8761 40.0166 19.7839 40.0166Z" fill="#F1592A"/>
<path d="M33.241 30.6811C32.9525 30.4439 32.5403 30.5086 32.3136 30.8104C31.479 31.9315 30.5207 32.9448 29.4388 33.818C29.1503 34.0551 29.0987 34.4863 29.3151 34.7881C29.4491 34.9606 29.6449 35.0576 29.8406 35.0576C29.9849 35.0576 30.1189 35.0145 30.2425 34.9175C31.4069 33.9796 32.4476 32.8801 33.3544 31.662C33.5811 31.3494 33.5295 30.9182 33.241 30.6811Z" fill="#F1592A"/>
<path d="M10.1289 33.8179C9.05724 32.9447 8.08865 31.9421 7.25401 30.8102C7.02732 30.5084 6.61515 30.4545 6.32664 30.6809C6.03812 30.918 5.9866 31.3492 6.20299 31.6511C7.09945 32.8693 8.15047 33.9581 9.31484 34.9067C9.43849 35.0038 9.57245 35.0469 9.71671 35.0469C9.91249 35.0469 10.1083 34.9499 10.2422 34.7774C10.4689 34.4755 10.4174 34.0443 10.1289 33.8179Z" fill="#F1592A"/>
<path d="M13.3749 5.49797C13.4573 5.49797 13.55 5.47641 13.6325 5.44407C14.6011 5.01286 15.6109 4.68945 16.6413 4.47384C17.0638 5.87528 18.3106 6.89941 19.7944 6.89941C21.2679 6.89941 22.525 5.87528 22.9474 4.47384C23.9779 4.68945 24.9877 5.01286 25.9563 5.44407C26.0387 5.47641 26.1314 5.49797 26.2139 5.49797C26.4715 5.49797 26.7188 5.33627 26.8218 5.07754C26.9661 4.72179 26.8115 4.32291 26.4715 4.17199C25.3792 3.68687 24.2458 3.33112 23.0814 3.09396C22.8959 1.35832 21.4842 0 19.7841 0C18.0839 0 16.6722 1.35832 16.5073 3.09396C15.343 3.33112 14.2095 3.69765 13.1173 4.17199C12.7772 4.32291 12.6227 4.72179 12.7669 5.07754C12.87 5.33627 13.1173 5.49797 13.3749 5.49797ZM19.7841 1.37988C20.8763 1.37988 21.7625 2.30699 21.7625 3.44971C21.7625 3.47127 21.7625 3.49283 21.7625 3.51439C21.7625 3.53595 21.7522 3.54673 21.7522 3.56829C21.7419 3.62219 21.7419 3.67609 21.7419 3.73C21.6182 4.74335 20.7836 5.53031 19.7841 5.53031C18.7846 5.53031 17.9499 4.74335 17.8263 3.73C17.8263 3.67609 17.8263 3.62219 17.816 3.56829C17.816 3.54673 17.8057 3.53595 17.8057 3.51439C17.8057 3.49283 17.8057 3.47127 17.8057 3.46049C17.8057 2.30699 18.6918 1.37988 19.7841 1.37988Z" fill="#F1592A"/>
<path d="M6.32664 10.7156C6.45029 10.8126 6.58424 10.8557 6.7285 10.8557C6.92428 10.8557 7.12006 10.7587 7.25401 10.5862C8.08865 9.46507 9.04693 8.45173 10.1289 7.57853C10.4174 7.34136 10.4689 6.91015 10.2525 6.60831C10.0258 6.30646 9.61366 6.25256 9.32515 6.47894C8.15047 7.43838 7.09945 8.52719 6.20299 9.74535C5.9866 10.0472 6.03812 10.4784 6.32664 10.7156Z" fill="#F1592A"/>
<path d="M14.2094 28.9018L19.4852 31.6616C19.4955 31.6616 19.4955 31.6616 19.5058 31.6724C19.5161 31.6724 19.5264 31.6832 19.5367 31.6832C19.5573 31.6939 19.5676 31.6939 19.5882 31.7047C19.5985 31.7047 19.6088 31.7155 19.6191 31.7155C19.6397 31.7155 19.6603 31.7263 19.6809 31.7263C19.6912 31.7263 19.7015 31.7263 19.7015 31.7263C19.7325 31.7263 19.7531 31.7371 19.784 31.7371C19.8149 31.7371 19.8355 31.7371 19.8664 31.7263C19.8767 31.7263 19.8767 31.7263 19.887 31.7263C19.9076 31.7263 19.9282 31.7155 19.9488 31.7155C19.9592 31.7155 19.9695 31.7155 19.9695 31.7047C19.9901 31.6939 20.0107 31.6939 20.0313 31.6832C20.0416 31.6832 20.0416 31.6724 20.0519 31.6724C20.0622 31.6724 20.0622 31.6616 20.0725 31.6616L25.3482 28.9018C25.5749 28.7833 25.7089 28.5461 25.7089 28.2874V23.199L30.624 20.6333C30.8507 20.5147 30.9846 20.2776 30.9846 20.0189V14.5101V14.4993C30.9846 14.4346 30.9743 14.3807 30.964 14.3268C30.9537 14.3053 30.9537 14.2837 30.9434 14.2514V14.2406C30.9331 14.219 30.9228 14.1975 30.9125 14.1759C30.9125 14.1651 30.9022 14.1651 30.9022 14.1544C30.8919 14.1328 30.8816 14.122 30.8713 14.1005C30.8713 14.0897 30.861 14.0897 30.861 14.0789C30.8507 14.0573 30.8404 14.0466 30.8197 14.0358C30.8094 14.025 30.8094 14.025 30.7991 14.0142C30.7888 14.0034 30.7682 13.9819 30.7579 13.9711C30.7476 13.9603 30.7373 13.9603 30.7373 13.9495C30.727 13.9388 30.7064 13.928 30.6961 13.9172L30.6858 13.9064C30.6755 13.9064 30.6652 13.8956 30.6652 13.8956C30.6549 13.8849 30.6446 13.8849 30.6343 13.8741L25.3585 11.1143C25.1731 11.0173 24.9567 11.0173 24.7712 11.1143L19.784 13.7124L14.8071 11.1035C14.6216 11.0065 14.4052 11.0065 14.2197 11.1035L8.944 13.8633C8.93369 13.8633 8.93369 13.8741 8.92339 13.8741C8.91309 13.8849 8.90278 13.8849 8.89248 13.8956C8.88217 13.8956 8.88217 13.9064 8.88217 13.9064C8.87187 13.9172 8.86157 13.9172 8.85126 13.928C8.84096 13.9388 8.82035 13.9495 8.81004 13.9603C8.79974 13.9711 8.78944 13.9819 8.77913 13.9927C8.76883 14.0034 8.75852 14.0142 8.74822 14.025C8.73792 14.0358 8.72761 14.0466 8.71731 14.0573C8.707 14.0681 8.6967 14.0789 8.68639 14.1005C8.67609 14.1112 8.67609 14.122 8.66579 14.1328C8.65548 14.1436 8.65548 14.1651 8.64518 14.1759C8.63487 14.1867 8.63487 14.1975 8.62457 14.219C8.61426 14.2298 8.61427 14.2514 8.60396 14.2622C8.60396 14.2729 8.59366 14.2837 8.59366 14.2945C8.59366 14.3161 8.58335 14.3376 8.58335 14.3484C8.58335 14.3592 8.58335 14.37 8.57305 14.3807C8.57305 14.4131 8.56274 14.4454 8.56274 14.4778V19.9973C8.56274 20.256 8.707 20.4932 8.92339 20.6118L13.8385 23.1775V28.2658C13.8488 28.5461 13.993 28.7833 14.2094 28.9018ZM20.4434 19.5769V15.5989L24.4002 17.6687V21.6467L20.4434 19.5769ZM19.784 20.7843L23.5862 22.7678L19.784 24.7514L15.9817 22.7678L19.784 20.7843ZM15.1677 17.6795L19.1245 15.6097V19.5876L15.1677 21.6575V17.6795ZM15.1677 23.889L19.1245 25.9588V29.9367L15.1677 27.8669V23.889ZM20.4434 29.926V25.948L24.4002 23.8782V27.8561L20.4434 29.926ZM25.7192 21.6467V17.6795L29.676 15.6097V19.5876L25.7192 21.6467ZM25.0597 12.505L28.862 14.4885L25.0597 16.4721L21.2575 14.4885L25.0597 12.505ZM14.5082 12.505L18.3105 14.4885L14.5082 16.4721L10.706 14.4885L14.5082 12.505ZM9.89198 15.6097L13.8488 17.6795V21.6575L9.89198 19.5769V15.6097Z" fill="#F1592A"/>
</svg>
