<svg width="40" height="44" viewBox="0 0 40 44" fill="none" xmlns="http://www.w3.org/2000/svg">
<path d="M28.0362 43.2251C27.2327 43.2251 26.456 43.0386 25.7328 42.68L21.3672 40.4994C21.0057 40.3129 20.6709 40.0546 20.403 39.7247L20.0013 39.2369L19.5996 39.7247C19.3317 40.0546 18.9969 40.3129 18.6354 40.4994L14.2698 42.6656C13.5332 43.0243 12.7565 43.2108 11.9664 43.2108C10.1854 43.2108 8.52484 42.2926 7.4937 40.7432L7.27944 40.4276L6.91787 40.5281C6.48934 40.6428 6.03403 40.7002 5.59211 40.7002C3.40931 40.7002 1.41399 39.3373 0.503368 37.2285C-0.608121 34.6749 0.168582 31.6192 2.36478 29.9694L2.67278 29.7399L2.57904 29.3525C1.92286 26.6124 3.18166 23.7576 5.57872 22.5669L9.94433 20.3863C10.1586 20.2858 10.3729 20.1998 10.6005 20.1567L11.6852 19.9129L10.8282 19.1525C10.1184 18.5213 9.70328 17.6031 9.70328 16.6133V11.4487C9.70328 8.62255 11.5915 6.19808 14.176 5.66728L14.5376 5.59555L14.6046 5.20821C15.0866 2.38204 17.3498 0.330566 20.0013 0.330566C22.6528 0.330566 24.916 2.38204 25.398 5.20821L25.465 5.59555L25.8266 5.66728C28.4245 6.18373 30.2993 8.60821 30.2993 11.4487V16.6133C30.2993 17.6031 29.8976 18.5213 29.1744 19.1525L28.3174 19.9129L29.4021 20.1567C29.6297 20.2141 29.8574 20.2858 30.0583 20.3863L34.4239 22.5669C36.8209 23.7576 38.0797 26.6124 37.4236 29.3525L37.3298 29.7399L37.6378 29.9694C39.8206 31.6192 40.6107 34.6749 39.4992 37.2285C38.5886 39.3373 36.5799 40.7002 34.4105 40.7002C33.9686 40.7002 33.5133 40.6428 33.0847 40.5281L32.7232 40.4276L32.5089 40.7432C31.4778 42.307 29.8038 43.2251 28.0362 43.2251ZM22.6662 35.55C21.9966 35.55 21.3672 35.966 21.086 36.6259C20.6709 37.5728 21.0592 38.7491 21.9297 39.1939L26.2953 41.3745C26.8443 41.647 27.4335 41.7905 28.0362 41.7905C29.2146 41.7905 30.3395 41.2454 31.1296 40.3129L31.5045 39.8538L31.0492 39.4808C30.2457 38.8065 29.6297 37.874 29.2682 36.8124C28.7727 35.3348 28.8263 33.7281 29.4289 32.3221L28.4513 31.8344L26.4292 36.4681C26.3221 36.7264 26.081 36.8842 25.8266 36.8842C25.7328 36.8842 25.6391 36.8555 25.5454 36.8124L23.3626 35.7221C23.1617 35.6074 22.9206 35.55 22.6662 35.55ZM10.5336 32.3078C11.1496 33.7281 11.2031 35.3205 10.7076 36.8124C10.3595 37.874 9.74346 38.7922 8.92658 39.4808L8.47127 39.8538L8.84623 40.3129C9.63633 41.2597 10.7612 41.7905 11.9397 41.7905C12.5423 41.7905 13.1315 41.647 13.6805 41.3745L18.0462 39.1939C18.4613 38.993 18.7961 38.5913 18.9434 38.1036C19.1041 37.6158 19.0773 37.085 18.8764 36.6403C18.5952 35.9804 17.9792 35.5643 17.2962 35.5643C17.0418 35.5643 16.7874 35.6217 16.5597 35.7365L14.3769 36.8268C14.2832 36.8698 14.1894 36.8985 14.0957 36.8985C13.8412 36.8985 13.6002 36.7407 13.4931 36.4825L11.471 31.8344L10.5336 32.3078ZM34.4373 30.3137C32.8303 30.3137 31.3572 31.3179 30.6743 32.8816C29.7101 35.1053 30.6207 37.8454 32.683 38.8783C33.2186 39.1508 33.7945 39.2799 34.3971 39.2799C36.0576 39.2799 37.5843 38.247 38.2806 36.6403C38.7493 35.5787 38.7895 34.3736 38.3877 33.2546C37.986 32.1356 37.2093 31.2462 36.1915 30.7441C35.6425 30.4572 35.0533 30.3137 34.4373 30.3137ZM5.55194 30.3137C4.94933 30.3137 4.3601 30.4572 3.79766 30.7297C2.77991 31.2318 2.00321 32.1356 1.60147 33.2403C1.19972 34.3593 1.2399 35.5643 1.7086 36.6259C2.40495 38.2327 3.93158 39.2656 5.59211 39.2656C6.19473 39.2656 6.77056 39.1365 7.30622 38.8639C8.29718 38.3618 9.0605 37.458 9.44885 36.3103C9.8372 35.1626 9.78363 33.9432 9.31493 32.8673C8.63197 31.3323 7.14552 30.3137 5.55194 30.3137ZM17.323 34.1154C18.1801 34.1154 19.0103 34.5027 19.5996 35.1913L20.0013 35.6504L20.403 35.1913C20.9789 34.5171 21.8091 34.1154 22.6796 34.1154C23.1215 34.1154 23.5634 34.2158 23.9786 34.431L25.5587 35.22L29.0673 27.1719L27.4871 26.3829C25.9471 25.6082 25.2775 23.6572 26.0007 22.0074C26.2015 21.5626 26.4694 21.1753 26.8309 20.8597L27.688 20.0994L26.6033 19.8555C25.1972 19.5399 24.166 18.177 24.166 16.6276V14.7626H15.8767V16.6276C15.8767 18.177 14.859 19.5255 13.4395 19.8555L12.3548 20.0994L13.2118 20.8597C13.56 21.1753 13.8412 21.5626 14.0421 22.0074C14.7652 23.6572 14.0957 25.6226 12.5557 26.3829L10.9487 27.1719L14.4572 35.22L16.0374 34.431C16.4392 34.2302 16.8811 34.1154 17.323 34.1154ZM5.55194 28.8934C7.66779 28.8934 9.60954 30.2133 10.5202 32.2648L11.4843 31.777L9.46224 27.1289C9.38189 26.9567 9.38189 26.7559 9.43546 26.5837C9.48902 26.4116 9.62294 26.2538 9.78363 26.1821L11.9664 25.0918C12.3816 24.8766 12.703 24.5036 12.8637 24.0445C13.0244 23.5711 12.9976 23.069 12.8101 22.6242C12.5289 21.9643 11.9129 21.5483 11.2299 21.5483C10.9755 21.5483 10.721 21.6057 10.4934 21.7204L6.12777 23.901C4.49402 24.7188 3.51644 26.6411 3.77088 28.5491L3.85123 29.1517L4.41367 29.0226C4.78863 28.9365 5.16359 28.8934 5.55194 28.8934ZM28.7593 21.5196C28.0897 21.5196 27.4603 21.9356 27.1791 22.5956C26.7774 23.528 27.1523 24.6327 28.0228 25.0774L30.2056 26.1677C30.3663 26.2538 30.4868 26.3972 30.5538 26.5694C30.6207 26.7559 30.6073 26.9424 30.527 27.1145L28.5183 31.7483L29.4824 32.2361C30.3931 30.1989 32.3348 28.8791 34.4373 28.8791C34.8122 28.8791 35.2006 28.9221 35.5755 29.0082L36.138 29.1373L36.2183 28.5348C36.4728 26.6124 35.5086 24.7044 33.8614 23.8867L29.4958 21.7061C29.2682 21.5913 29.0271 21.5196 28.7593 21.5196ZM24.8088 13.328C25.1838 13.328 25.4784 13.6437 25.4784 14.0453V16.6276C25.4784 17.6605 26.2551 18.4926 27.2193 18.4926C28.1835 18.4926 28.9602 17.6605 28.9602 16.6276V11.4631C28.9602 9.52635 27.7549 7.77614 26.0141 7.21665L25.465 7.04449L25.3311 7.64703C24.7553 10.3297 22.5591 12.1947 19.9879 12.1947C17.4168 12.1947 15.2206 10.3297 14.6447 7.64703L14.5108 7.04449L13.9618 7.21665C12.2343 7.77614 11.0156 9.52635 11.0156 11.4631V16.6276C11.0156 17.6605 11.7923 18.4926 12.7565 18.4926C13.7207 18.4926 14.4974 17.6605 14.4974 16.6276V14.0453C14.4974 13.6437 14.792 13.328 15.167 13.328H24.8088ZM19.9879 1.77951C17.7381 1.77951 15.8366 3.85968 15.8366 6.31285C15.8366 8.76601 17.698 10.7601 19.9879 10.7601C22.2778 10.7601 24.1393 8.76601 24.1393 6.31285C24.1393 3.84534 22.2377 1.77951 19.9879 1.77951Z" fill="#F1592A"/>
</svg>
