<svg width="10" height="13" viewBox="0 0 10 13" fill="none" xmlns="http://www.w3.org/2000/svg">
<path d="M9.95159 0.976161C9.94682 0.952206 9.94205 0.93424 9.92776 0.910285C9.41772 -0.041921 8.12594 0.0119774 7.32513 0C7.24409 0 7.20596 0.101808 7.22503 0.18565C7.15352 0.209605 7.08679 0.245538 7.02959 0.293447C6.20495 1.01209 5.81408 2.52125 5.42321 3.62318C5.04664 4.6712 4.62716 5.69527 4.26489 6.75528C4.11236 7.20443 3.69765 8.11472 3.63569 8.80342C2.92068 7.15652 2.25334 5.47968 1.6146 3.77289C1.58123 3.68306 1.50496 3.67109 1.443 3.70702C1.28569 3.59323 1.07596 3.68306 0.909124 3.73696C0.680321 3.80883 0.441985 3.89267 0.227483 4.02442C0.194116 4.04837 0.175049 4.07233 0.160749 4.10826C0.0844813 4.06634 -0.0203865 4.15018 0.00344708 4.27595C0.58022 6.94093 2.18184 9.1867 3.00171 11.7499C3.03031 11.8457 3.09228 11.8876 3.15901 11.8996C3.17332 11.9415 3.20192 11.9715 3.24005 11.9834C3.54035 12.0673 3.84542 12.1152 4.15526 12.1451C4.42696 12.1751 4.74157 12.2409 5.00374 12.1391C5.0943 12.1032 5.13244 11.9954 5.11814 11.8996C5.1372 11.8936 5.16104 11.8756 5.18487 11.8457C5.21347 11.8098 5.18487 11.7618 5.14674 11.7678C5.36124 11.7259 5.56144 10.5342 5.61864 10.3246C5.81408 9.6598 6.02381 9.00703 6.23832 8.35426C6.36225 7.97697 6.50048 7.59969 6.64825 7.22838C6.70545 7.09663 6.75789 6.96488 6.81032 6.82714C7.65403 4.83889 8.80758 2.97041 9.95159 1.31153C10.0231 1.20373 10.0088 1.06599 9.95159 0.976161ZM1.27616 4.21007C1.26186 4.18013 1.25233 4.15018 1.24279 4.12024C1.29999 4.10227 1.3572 4.08431 1.40486 4.04837C1.4144 4.08431 1.42393 4.11425 1.43346 4.15018C1.37626 4.13821 1.31906 4.16216 1.27616 4.21007ZM2.15324 6.43189C2.1437 6.41392 2.13417 6.39595 2.11987 6.372L2.1151 6.36601C2.0865 6.22827 2.0579 6.09053 2.02454 5.95279C2.02454 5.95279 2.02454 5.95279 2.02454 5.9468C2.07697 6.09053 2.13417 6.24025 2.1866 6.38398C2.17707 6.40194 2.16754 6.41392 2.15324 6.43189ZM4.4937 11.696C4.5223 11.6481 4.52706 11.5822 4.51753 11.5223C4.5509 11.4924 4.58426 11.4564 4.61763 11.4205C4.61286 11.4504 4.60333 11.4804 4.59856 11.5103C4.58426 11.5882 4.59856 11.6481 4.63193 11.69C4.58426 11.69 4.5366 11.69 4.4937 11.696ZM5.61864 8.91121C5.58051 9.03099 5.53761 9.15675 5.49471 9.2885C5.49947 9.25856 5.49947 9.23461 5.50424 9.20466C5.56144 9.01901 5.61864 8.83935 5.68061 8.6537C5.69491 8.64172 5.70444 8.62974 5.71874 8.61777C5.68061 8.71359 5.65201 8.80941 5.61864 8.91121ZM6.66732 6.16239C6.48142 6.57561 6.30505 6.99482 6.13821 7.42601C6.08578 7.52183 6.03335 7.61166 5.97615 7.6955C6.20018 7.15053 6.44805 6.61754 6.69592 6.07855C6.68639 6.10849 6.67685 6.13245 6.66732 6.16239ZM7.9591 1.25164C7.9734 1.2217 7.98293 1.19774 7.99723 1.1678C8.05443 1.07797 8.11164 0.98215 8.16884 0.874353C8.1736 0.874353 8.18314 0.874353 8.1879 0.874353C8.22127 0.886331 8.2594 0.898308 8.29277 0.910285C8.2594 0.916274 8.22127 0.928252 8.1879 0.970173C8.11164 1.07198 8.03537 1.16181 7.9591 1.25164Z" fill="#F1592A"/>
</svg>
